<svg id="svg" version="1.1" xmlns="http://www.w3.org/2000/svg" xmlns:xlink="http://www.w3.org/1999/xlink" width="400" height="517.6470588235294" viewBox="0, 0, 400,517.6470588235294"><g id="svgg"><path id="path0" d="M78.431 61.625 L 78.431 66.106 73.950 66.106 L 69.468 66.106 69.468 249.860 L 69.468 433.613 73.950 433.613 L 78.431 433.613 78.431 438.095 L 78.431 442.577 208.403 442.577 L 338.375 442.577 338.375 438.095 L 338.375 433.613 342.857 433.613 L 347.339 433.613 347.339 249.860 L 347.339 66.106 342.857 66.106 L 338.375 66.106 338.375 61.625 L 338.375 57.143 208.403 57.143 L 78.431 57.143 78.431 61.625 M245.098 107.003 L 245.098 115.406 253.641 115.406 L 262.185 115.406 262.185 124.370 L 262.185 133.333 271.148 133.333 L 280.112 133.333 280.112 141.737 L 280.112 150.140 288.515 150.140 L 296.919 150.140 296.919 192.157 L 296.919 234.174 288.515 234.174 L 280.112 234.174 280.112 242.577 L 280.112 250.980 271.148 250.980 L 262.185 250.980 262.185 259.384 L 262.185 267.787 253.782 267.787 L 245.378 267.787 245.378 284.594 L 245.378 301.401 236.975 301.401 L 228.571 301.401 228.571 309.804 L 228.571 318.207 212.325 318.207 L 196.078 318.207 196.078 309.804 L 196.078 301.401 187.675 301.401 L 179.272 301.401 179.272 276.751 L 179.272 252.101 187.675 252.101 L 196.078 252.101 196.078 243.697 L 196.078 235.294 204.482 235.294 L 212.885 235.294 212.885 226.331 L 212.885 217.367 221.289 217.367 L 229.692 217.367 229.692 191.457 L 229.692 165.546 212.325 165.546 L 194.958 165.546 194.958 190.896 L 194.958 216.246 186.555 216.246 L 178.151 216.246 178.151 225.210 L 178.151 234.174 161.345 234.174 L 144.538 234.174 144.538 225.210 L 144.538 216.246 136.134 216.246 L 127.731 216.246 127.731 183.193 L 127.731 150.140 136.134 150.140 L 144.538 150.140 144.538 141.737 L 144.538 133.333 152.941 133.333 L 161.345 133.333 161.345 124.370 L 161.345 115.406 170.308 115.406 L 179.272 115.406 179.272 107.003 L 179.272 98.599 212.185 98.599 L 245.098 98.599 245.098 107.003 M228.571 345.098 L 228.571 354.062 236.975 354.062 L 245.378 354.062 245.378 370.308 L 245.378 386.555 236.975 386.555 L 228.571 386.555 228.571 394.958 L 228.571 403.361 212.325 403.361 L 196.078 403.361 196.078 394.958 L 196.078 386.555 187.675 386.555 L 179.272 386.555 179.272 370.308 L 179.272 354.062 187.675 354.062 L 196.078 354.062 196.078 345.098 L 196.078 336.134 212.325 336.134 L 228.571 336.134 228.571 345.098 " stroke="none" fill="#fcfcfc" fill-rule="evenodd"></path><path id="path1" d="M78.431 52.661 L 78.431 57.143 73.950 57.143 L 69.468 57.143 69.468 61.625 L 69.468 66.106 64.986 66.106 L 60.504 66.106 60.504 249.860 L 60.504 433.613 64.986 433.613 L 69.468 433.613 69.468 438.095 L 69.468 442.577 73.950 442.577 L 78.431 442.577 78.431 446.919 L 78.431 451.261 208.403 451.261 L 338.375 451.261 338.375 446.919 L 338.375 442.577 342.857 442.577 L 347.339 442.577 347.339 438.095 L 347.339 433.613 351.821 433.613 L 356.303 433.613 356.303 249.860 L 356.303 66.106 351.821 66.106 L 347.339 66.106 347.339 61.625 L 347.339 57.143 342.857 57.143 L 338.375 57.143 338.375 52.661 L 338.375 48.179 208.403 48.179 L 78.431 48.179 78.431 52.661 M338.375 61.625 L 338.375 66.106 342.857 66.106 L 347.339 66.106 347.339 249.860 L 347.339 433.613 342.857 433.613 L 338.375 433.613 338.375 438.095 L 338.375 442.577 208.403 442.577 L 78.431 442.577 78.431 438.095 L 78.431 433.613 73.950 433.613 L 69.468 433.613 69.468 249.860 L 69.468 66.106 73.950 66.106 L 78.431 66.106 78.431 61.625 L 78.431 57.143 208.403 57.143 L 338.375 57.143 338.375 61.625 M179.272 107.003 L 179.272 115.406 212.185 115.406 L 245.098 115.406 245.098 107.003 L 245.098 98.599 212.185 98.599 L 179.272 98.599 179.272 107.003 M161.345 123.810 L 161.345 132.213 169.748 132.213 L 178.151 132.213 178.151 123.810 L 178.151 115.406 169.748 115.406 L 161.345 115.406 161.345 123.810 M246.218 123.810 L 246.218 132.213 254.202 132.213 L 262.185 132.213 262.185 123.810 L 262.185 115.406 254.202 115.406 L 246.218 115.406 246.218 123.810 M144.538 141.176 L 144.538 149.020 152.941 149.020 L 161.345 149.020 161.345 141.176 L 161.345 133.333 152.941 133.333 L 144.538 133.333 144.538 141.176 M263.305 141.176 L 263.305 149.020 271.709 149.020 L 280.112 149.020 280.112 141.176 L 280.112 133.333 271.709 133.333 L 263.305 133.333 263.305 141.176 M127.731 183.193 L 127.731 216.246 135.574 216.246 L 143.417 216.246 143.417 183.193 L 143.417 150.140 135.574 150.140 L 127.731 150.140 127.731 183.193 M281.232 192.157 L 281.232 234.174 289.076 234.174 L 296.919 234.174 296.919 192.157 L 296.919 150.140 289.076 150.140 L 281.232 150.140 281.232 192.157 M179.272 183.333 L 179.272 216.246 187.115 216.246 L 194.958 216.246 194.958 190.896 L 194.958 165.546 212.325 165.546 L 229.692 165.546 229.692 190.896 L 229.692 216.246 237.395 216.246 L 245.098 216.246 245.098 183.333 L 245.098 150.420 212.185 150.420 L 179.272 150.420 179.272 183.333 M144.538 225.770 L 144.538 234.174 161.345 234.174 L 178.151 234.174 178.151 225.770 L 178.151 217.367 161.345 217.367 L 144.538 217.367 144.538 225.770 M212.885 225.770 L 212.885 234.174 220.728 234.174 L 228.571 234.174 228.571 225.770 L 228.571 217.367 220.728 217.367 L 212.885 217.367 212.885 225.770 M196.078 243.137 L 196.078 250.980 203.922 250.980 L 211.765 250.980 211.765 243.137 L 211.765 235.294 203.922 235.294 L 196.078 235.294 196.078 243.137 M263.305 243.137 L 263.305 250.980 271.709 250.980 L 280.112 250.980 280.112 243.137 L 280.112 235.294 271.709 235.294 L 263.305 235.294 263.305 243.137 M179.272 276.751 L 179.272 301.401 187.115 301.401 L 194.958 301.401 194.958 276.751 L 194.958 252.101 187.115 252.101 L 179.272 252.101 179.272 276.751 M246.499 259.944 L 246.499 267.787 254.342 267.787 L 262.185 267.787 262.185 259.944 L 262.185 252.101 254.342 252.101 L 246.499 252.101 246.499 259.944 M229.692 285.154 L 229.692 301.401 237.535 301.401 L 245.378 301.401 245.378 285.154 L 245.378 268.908 237.535 268.908 L 229.692 268.908 229.692 285.154 M196.078 310.364 L 196.078 318.207 212.325 318.207 L 228.571 318.207 228.571 310.364 L 228.571 302.521 212.325 302.521 L 196.078 302.521 196.078 310.364 M196.078 344.538 L 196.078 352.941 212.325 352.941 L 228.571 352.941 228.571 344.538 L 228.571 336.134 212.325 336.134 L 196.078 336.134 196.078 344.538 M179.272 370.308 L 179.272 386.555 187.115 386.555 L 194.958 386.555 194.958 370.308 L 194.958 354.062 187.115 354.062 L 179.272 354.062 179.272 370.308 M229.692 370.308 L 229.692 386.555 237.535 386.555 L 245.378 386.555 245.378 370.308 L 245.378 354.062 237.535 354.062 L 229.692 354.062 229.692 370.308 M196.078 395.518 L 196.078 403.361 212.325 403.361 L 228.571 403.361 228.571 395.518 L 228.571 387.675 212.325 387.675 L 196.078 387.675 196.078 395.518 " stroke="none" fill="#040404" fill-rule="evenodd"></path><path id="path2" d="M178.151 123.810 L 178.151 132.213 169.748 132.213 L 161.345 132.213 161.345 140.616 L 161.345 149.020 152.941 149.020 C 144.725 149.020,144.538 149.032,144.538 149.580 C 144.538 149.953,144.351 150.140,143.978 150.140 C 143.421 150.140,143.417 150.327,143.417 183.193 C 143.417 216.060,143.421 216.246,143.978 216.246 C 144.351 216.246,144.538 216.433,144.538 216.807 C 144.538 217.361,144.725 217.367,161.345 217.367 C 177.965 217.367,178.151 217.361,178.151 216.807 C 178.151 216.433,178.338 216.246,178.711 216.246 C 179.269 216.246,179.272 216.060,179.272 183.333 L 179.272 150.420 212.185 150.420 L 245.098 150.420 245.098 183.333 L 245.098 216.246 237.395 216.246 C 229.879 216.246,229.692 216.260,229.692 216.807 C 229.692 217.180,229.505 217.367,229.132 217.367 C 228.584 217.367,228.571 217.554,228.571 225.770 L 228.571 234.174 220.728 234.174 C 213.072 234.174,212.885 234.187,212.885 234.734 C 212.885 235.107,212.698 235.294,212.325 235.294 C 211.778 235.294,211.765 235.481,211.765 243.137 L 211.765 250.980 203.922 250.980 C 196.265 250.980,196.078 250.994,196.078 251.541 C 196.078 251.914,195.892 252.101,195.518 252.101 C 194.962 252.101,194.958 252.288,194.958 276.751 C 194.958 301.214,194.962 301.401,195.518 301.401 C 195.892 301.401,196.078 301.587,196.078 301.961 C 196.078 302.515,196.265 302.521,212.325 302.521 C 228.385 302.521,228.571 302.515,228.571 301.961 C 228.571 301.587,228.758 301.401,229.132 301.401 C 229.685 301.401,229.692 301.214,229.692 285.154 L 229.692 268.908 237.535 268.908 C 245.191 268.908,245.378 268.894,245.378 268.347 C 245.378 267.974,245.565 267.787,245.938 267.787 C 246.485 267.787,246.499 267.600,246.499 259.944 L 246.499 252.101 254.342 252.101 C 261.998 252.101,262.185 252.088,262.185 251.541 C 262.185 251.167,262.372 250.980,262.745 250.980 C 263.292 250.980,263.305 250.794,263.305 243.137 L 263.305 235.294 271.709 235.294 C 279.925 235.294,280.112 235.282,280.112 234.734 C 280.112 234.360,280.299 234.174,280.672 234.174 C 281.230 234.174,281.232 233.987,281.232 192.157 C 281.232 150.327,281.230 150.140,280.672 150.140 C 280.299 150.140,280.112 149.953,280.112 149.580 C 280.112 149.032,279.925 149.020,271.709 149.020 L 263.305 149.020 263.305 141.176 C 263.305 133.520,263.292 133.333,262.745 133.333 C 262.372 133.333,262.185 133.147,262.185 132.773 C 262.185 132.226,261.998 132.213,254.202 132.213 L 246.218 132.213 246.218 123.810 L 246.218 115.406 212.185 115.406 L 178.151 115.406 178.151 123.810 M196.078 353.501 C 196.078 353.875,195.892 354.062,195.518 354.062 C 194.964 354.062,194.958 354.248,194.958 370.308 C 194.958 386.368,194.964 386.555,195.518 386.555 C 195.892 386.555,196.078 386.741,196.078 387.115 C 196.078 387.669,196.265 387.675,212.325 387.675 C 228.385 387.675,228.571 387.669,228.571 387.115 C 228.571 386.741,228.758 386.555,229.132 386.555 C 229.685 386.555,229.692 386.368,229.692 370.308 C 229.692 354.248,229.685 354.062,229.132 354.062 C 228.758 354.062,228.571 353.875,228.571 353.501 C 228.571 352.948,228.385 352.941,212.325 352.941 C 196.265 352.941,196.078 352.948,196.078 353.501 " stroke="none" fill="#e34c1c" fill-rule="evenodd"></path><path id="path3" d="" stroke="none" fill="#bcbc100" fill-rule="evenodd"></path><path id="path4" d="" stroke="none" fill="#bcbc100" fill-rule="evenodd"></path></g></svg>